<?xml version="1.0" standalone="no"?>
<!DOCTYPE svg PUBLIC "-//W3C//DTD SVG 20010904//EN"
 "http://www.w3.org/TR/2001/REC-SVG-20010904/DTD/svg10.dtd">
<svg version="1.0" xmlns="http://www.w3.org/2000/svg"
 width="511.000000pt" height="511.000000pt" viewBox="0 0 511.000000 511.000000"
 preserveAspectRatio="xMidYMid meet">
<metadata>
Created by potrace 1.11, written by Peter Selinger 2001-2013
</metadata>
<g transform="translate(0.000000,511.000000) scale(0.100000,-0.100000)"
fill="#000000" stroke="none">
<path d="M4 2773 l1 -1688 405 0 405 0 2 1688 2 1687 -409 0 -408 0 2 -1687z"/>
<path d="M1330 2770 l0 -1690 398 0 398 0 0 1043 c0 894 2 1042 14 1042 9 0
51 -93 121 -270 139 -351 317 -805 364 -925 101 -259 227 -577 234 -595 5 -11
31 -76 58 -145 l49 -125 254 0 253 0 29 70 c15 39 32 79 37 90 5 11 70 175
145 365 74 190 200 509 280 710 79 201 183 464 231 585 87 220 98 245 112 232
4 -4 7 -472 7 -1040 l1 -1032 398 -3 397 -2 0 1690 0 1690 -507 0 -508 0 -57
-143 c-72 -180 -195 -483 -212 -522 -8 -16 -64 -154 -126 -305 -62 -151 -118
-288 -125 -305 -8 -16 -43 -102 -79 -190 -227 -562 -253 -620 -275 -623 -14
-2 -24 4 -31 20 -5 13 -62 151 -125 308 -64 157 -120 294 -125 305 -13 28
-335 813 -371 905 -16 41 -36 89 -44 105 -8 17 -40 93 -71 170 -57 141 -74
183 -100 243 l-14 32 -505 0 -505 0 0 -1690z"/>
<path d="M2474 968 c-13 -25 -13 -28 0 -28 9 0 22 13 30 28 13 25 13 29 0 29
-8 0 -22 -13 -30 -29z"/>
<path d="M973 905 c-41 -17 -63 -52 -67 -106 -6 -83 34 -140 101 -144 48 -4
86 19 107 62 53 111 -38 231 -141 188z m102 -46 c15 -15 20 -33 20 -75 0 -49
-4 -59 -28 -80 -49 -42 -106 -24 -127 40 -33 102 63 184 135 115z"/>
<path d="M1795 913 c-62 -12 -93 -51 -96 -124 -2 -59 14 -95 53 -119 64 -40
139 -9 161 68 29 97 -34 190 -118 175z m73 -59 c41 -46 22 -154 -30 -168 -39
-10 -54 -7 -82 19 -46 43 -32 154 23 174 34 12 61 5 89 -25z"/>
<path d="M2241 912 c-7 -2 -11 -47 -11 -134 0 -99 3 -129 13 -126 6 3 14 27
17 54 5 50 8 53 59 45 4 0 19 -21 32 -46 22 -41 45 -62 57 -51 2 3 -8 26 -22
52 -26 47 -26 47 -7 68 33 35 29 106 -6 121 -23 10 -117 22 -132 17z m116 -44
c15 -12 17 -64 3 -73 -6 -4 -31 -9 -55 -11 l-45 -5 0 49 c0 27 3 51 6 54 9 9
76 -1 91 -14z"/>
<path d="M2625 911 c-75 -22 -108 -114 -69 -196 45 -95 191 -76 199 27 3 37
-15 47 -68 40 -36 -6 -29 -27 8 -27 38 0 42 -19 11 -50 -36 -36 -77 -33 -111
7 -23 28 -27 39 -22 81 5 57 28 85 76 91 26 3 38 -2 59 -25 30 -34 42 -37 42
-10 0 37 -78 76 -125 62z"/>
<path d="M3114 910 l-40 -5 -1 -122 c0 -82 3 -123 11 -125 29 -10 140 -2 143
10 4 9 -12 12 -55 12 -64 0 -69 4 -68 55 1 29 2 30 59 33 43 2 57 7 57 18 0
13 -11 15 -55 12 -30 -2 -56 -2 -56 1 -1 3 -3 23 -4 44 -2 40 -5 39 78 40 30
0 47 5 47 13 0 14 -58 21 -116 14z"/>
<path d="M3357 910 c-91 -6 -104 -25 -17 -25 32 -1 61 -3 64 -6 3 -2 -26 -50
-63 -106 -37 -56 -65 -105 -62 -110 3 -4 43 -8 89 -9 62 0 82 3 82 13 0 9 -17
13 -57 14 -32 1 -61 1 -65 0 -14 -2 -8 9 57 107 63 93 74 117 58 124 -5 2 -43
1 -86 -2z"/>
<path d="M3609 913 c-3 -28 -4 -231 -1 -244 3 -14 15 -16 64 -13 93 5 126 35
133 118 7 84 -37 131 -123 135 -31 1 -59 4 -64 7 -4 3 -8 2 -9 -3z m128 -44
c25 -13 36 -39 38 -84 3 -65 -47 -111 -111 -103 l-29 3 0 90 c0 50 3 95 7 101
10 13 64 9 95 -7z"/>
<path d="M3897 912 l-38 -3 3 -127 3 -127 74 0 c51 0 76 4 78 13 4 9 -13 12
-61 12 l-66 0 0 45 0 45 60 0 c50 0 58 3 53 16 -3 8 -15 14 -27 13 -11 0 -36
-1 -54 0 -33 1 -33 2 -30 43 l3 42 57 0 c36 0 59 4 62 12 5 13 -52 21 -117 16z"/>
<path d="M0 782 c0 -108 2 -129 15 -129 13 0 15 21 15 129 0 107 -2 128 -15
128 -13 0 -15 -21 -15 -128z"/>
<path d="M93 785 c0 -113 3 -130 23 -122 4 1 7 42 6 90 0 49 2 86 5 83 3 -3
21 -42 39 -87 33 -80 51 -106 66 -91 3 4 16 32 28 62 12 30 27 66 33 80 5 14
10 28 9 33 -1 4 2 7 7 7 4 0 8 -37 7 -82 -2 -93 0 -109 18 -102 9 3 12 40 12
129 -1 119 -2 125 -21 125 -15 0 -26 -14 -44 -62 -13 -35 -33 -83 -43 -108
l-20 -45 -42 105 c-32 80 -47 106 -62 108 -20 3 -20 -2 -21 -123z"/>
<path d="M470 883 c-6 -15 -14 -39 -19 -53 -5 -14 -13 -34 -17 -45 -4 -11 -8
-22 -9 -25 -4 -12 -17 -47 -26 -68 -12 -31 -11 -39 5 -39 8 0 21 18 29 39 15
38 16 38 64 36 45 -3 49 -6 66 -40 17 -37 38 -51 36 -25 0 6 -19 64 -42 127
-45 123 -68 147 -87 93z m43 -55 c8 -24 18 -50 21 -58 5 -13 -1 -16 -28 -15
-19 0 -38 3 -41 7 -6 6 24 108 31 108 1 0 9 -19 17 -42z"/>
<path d="M647 784 c0 -69 4 -128 6 -131 18 -18 27 17 25 98 -1 49 2 89 6 89 4
1 35 -39 68 -87 59 -85 74 -103 91 -103 4 0 7 59 7 130 0 108 -3 130 -15 130
-11 0 -15 -20 -17 -99 l-3 -99 -68 99 c-94 137 -102 134 -100 -27z"/>
<path d="M1182 783 l3 -128 73 0 c53 -1 72 2 72 12 0 14 -11 16 -76 14 l-42
-1 2 115 c1 104 -1 115 -17 115 -16 0 -18 -10 -15 -127z"/>
<path d="M1480 781 c0 -99 3 -130 13 -128 7 1 14 23 17 51 5 45 7 49 33 52 24
2 31 -4 58 -52 17 -30 35 -54 39 -54 19 0 17 18 -6 60 l-25 43 21 22 c23 25
27 82 6 110 -11 15 -30 20 -85 23 l-71 4 0 -131z m130 84 c17 -16 17 -60 -1
-71 -5 -3 -30 -8 -54 -10 l-45 -5 0 50 c0 44 3 50 23 53 33 6 58 0 77 -17z"/>
<path d="M1975 788 c-1 -68 3 -126 8 -129 16 -12 117 -1 142 15 71 46 67 184
-6 221 -15 8 -54 15 -86 15 l-58 0 0 -122z m137 81 c20 -11 40 -74 33 -108 -9
-47 -33 -69 -80 -77 -25 -3 -49 -4 -52 0 -7 6 -11 161 -5 187 3 12 13 15 45
12 22 -3 49 -9 59 -14z"/>
<path d="M2455 785 c0 -69 3 -125 7 -125 5 0 11 -1 16 -2 4 -2 7 54 8 125 1
111 -1 127 -15 127 -14 0 -16 -17 -16 -125z"/>
<path d="M2812 806 c3 -94 5 -108 26 -128 17 -18 34 -23 73 -23 43 0 54 4 75
28 22 26 24 37 24 128 0 81 -3 99 -15 99 -12 0 -15 -17 -15 -95 0 -106 -14
-135 -67 -135 -57 0 -71 29 -70 140 1 74 -2 85 -17 88 -16 4 -18 -5 -14 -102z"/>
<path d="M4172 785 c4 -150 21 -172 28 -36 l5 95 34 -85 c19 -46 38 -89 43
-96 14 -17 35 -5 42 23 4 13 18 49 31 79 14 29 25 59 25 64 0 6 3 11 8 11 4 0
7 -42 6 -93 -1 -73 2 -94 12 -94 8 0 14 10 15 21 0 12 1 69 2 129 2 102 1 107
-18 107 -17 0 -29 -20 -64 -105 -24 -58 -44 -105 -45 -105 -2 0 -22 47 -46
105 -33 82 -47 105 -62 105 -17 0 -18 -8 -16 -125z"/>
<path d="M4556 902 c-11 -18 -86 -226 -86 -238 0 -28 22 -13 37 26 16 39 17
40 66 38 48 -1 50 -2 64 -38 16 -39 48 -53 37 -16 -5 18 -59 165 -79 219 -7
17 -30 23 -39 9z m53 -137 c1 -6 -16 -11 -38 -11 l-39 -1 21 61 20 61 18 -50
c10 -28 18 -55 18 -60z"/>
<path d="M4680 906 c0 -3 20 -37 45 -75 39 -61 45 -76 45 -124 0 -41 4 -54 15
-54 12 0 15 13 15 56 0 42 6 65 23 91 13 19 33 52 46 73 21 35 22 37 4 37 -12
0 -29 -18 -48 -52 -17 -28 -34 -53 -40 -54 -5 -2 -24 20 -40 49 -17 28 -38 53
-48 55 -9 2 -17 1 -17 -2z"/>
<path d="M4976 902 c-8 -13 -86 -232 -86 -241 0 -4 6 -8 14 -8 8 0 19 17 25
38 11 37 12 38 66 38 l55 0 10 -38 c6 -22 16 -38 25 -38 21 0 19 7 -29 137
-40 108 -63 139 -80 112z m50 -107 c7 -16 11 -31 9 -34 -3 -2 -22 -5 -43 -6
l-39 -2 20 60 c19 55 22 58 30 36 5 -13 16 -37 23 -54z"/>
</g>
</svg>
